<svg fill="none" height="256" viewBox="0 0 256 256" width="256" xmlns="http://www.w3.org/2000/svg" xmlns:xlink="http://www.w3.org/1999/xlink"><linearGradient id="a" gradientUnits="userSpaceOnUse" x1="425" x2="16" y1="8.00003" y2="248"><stop offset="0" stop-color="#a3d58a"/><stop offset="1" stop-color="#28a889"/></linearGradient><path d="m0 0h256v256h-256z" fill="url(#a)"/><g fill="#dbf0e0"><path d="m119.45 88h-66.45c-2.2091 0-4 1.7909-4 4v72c0 2.209 1.7909 4 4 4h66.45c3.548 0 5.34-4.277 2.85-6.806l-29.9128-30.388c-1.5325-1.557-1.5325-4.055 0-5.612l29.9128-30.3879c2.49-2.5288.698-6.8061-2.85-6.8061z"/><path d="m162.95 88h-28.142c-1.076 0-2.107.4337-2.86 1.203l-35.2122 36c-1.5206 1.555-1.5206 4.039 0 5.594l35.2122 36c.753.769 1.784 1.203 2.86 1.203h28.142c3.548 0 5.34-4.277 2.85-6.806l-29.913-30.388c-1.532-1.557-1.532-4.055 0-5.612l29.913-30.3879c2.49-2.5288.698-6.8061-2.85-6.8061z" opacity=".6"/><path d="m197.95 88h-19.142c-1.076 0-2.107.4337-2.86 1.203l-35.212 36c-1.521 1.555-1.521 4.039 0 5.594l35.212 36c.753.769 1.784 1.203 2.86 1.203h19.142c3.548 0 5.34-4.277 2.85-6.806l-29.913-30.388c-1.532-1.557-1.532-4.055 0-5.612l29.913-30.3879c2.49-2.5288.698-6.8061-2.85-6.8061z" opacity=".2"/></g></svg>